<?xml version="1.0" encoding="UTF-8"?>
<svg id="_Слой_1" data-name="Слой 1" xmlns="http://www.w3.org/2000/svg" viewBox="0 0 75.38 75.38">
  <defs>
    <style>
      .cls-1 {
        fill: #2b85bc;
      }

      .cls-1, .cls-2 {
        stroke-width: 0px;
      }

      .cls-2 {
        fill: #449ee0;
      }
    </style>
  </defs>
  <g>
    <path class="cls-2" d="M72.5,74.88c-.27,0-.51-.1-.7-.29l-26.39-26.39c-.39-.39-.39-1.02,0-1.41l1.39-1.39c.19-.19.44-.29.7-.29s.51.1.7.29l26.39,26.39c.39.39.39,1.02,0,1.41l-1.39,1.39c-.19.19-.44.29-.7.29Z"/>
    <path class="cls-2" d="M47.5,45.62c.08,0,.22.02.35.14l26.39,26.39c.19.19.19.51,0,.7l-1.39,1.39c-.13.13-.27.14-.35.14s-.22-.02-.35-.14l-26.39-26.39c-.19-.19-.19-.51,0-.7l1.39-1.39c.13-.13.27-.14.35-.14M47.5,44.62c-.38,0-.76.15-1.06.44l-1.39,1.39c-.58.58-.58,1.53,0,2.11l26.39,26.39c.29.29.67.44,1.06.44s.76-.15,1.06-.44l1.39-1.39c.58-.58.58-1.53,0-2.11l-26.39-26.39c-.29-.29-.67-.44-1.06-.44h0Z"/>
  </g>
  <g>
    <path class="cls-1" d="M42.23,15.66c-.42,0-.79-.26-.93-.65l-3.7-10.13c-.19-.52.08-1.09.59-1.27.11-.04.23-.06.34-.06.42,0,.79.26.93.65l3.7,10.13c.09.25.08.52-.03.76-.11.24-.31.42-.56.51-.11.04-.22.06-.34.06Z"/>
    <path class="cls-1" d="M38.53,4.04c.17,0,.38.1.46.33l3.7,10.13c.09.26-.04.54-.29.63-.06.02-.11.03-.17.03-.17,0-.38-.1-.46-.33l-3.7-10.13c-.06-.17-.02-.31.02-.38.03-.07.11-.19.28-.26.06-.02.11-.03.17-.03M38.53,3.04c-.17,0-.34.03-.51.09h0c-.78.28-1.17,1.14-.89,1.92l3.7,10.13c.22.61.79.98,1.4.98.17,0,.34-.03.51-.09h0c.78-.28,1.17-1.14.89-1.92l-3.7-10.13c-.22-.61-.79-.98-1.4-.98h0Z"/>
  </g>
  <g>
    <path class="cls-1" d="M28.43,20.92c-.35,0-.68-.22-.8-.56-.16-.44.07-.93.51-1.09l13.88-5.07c.09-.03.19-.05.29-.05.36,0,.68.22.8.56.08.21.07.44-.03.65s-.27.36-.48.44l-13.88,5.07c-.09.03-.19.05-.29.05h0Z"/>
    <path class="cls-1" d="M42.31,14.65c.12,0,.27.07.33.23.04.12.01.22-.01.27-.02.05-.08.14-.2.18l-13.88,5.07s-.08.02-.12.02c-.12,0-.27-.07-.33-.23-.04-.12-.01-.22.01-.27.02-.05.08-.14.2-.18l13.88-5.07s.08-.02.12-.02M42.31,13.65c-.15,0-.31.03-.46.08l-13.88,5.07c-.7.26-1.06,1.03-.8,1.73.2.55.72.89,1.27.89.15,0,.31-.03.46-.08l13.88-5.07c.7-.26,1.06-1.03.8-1.73-.2-.55-.72-.89-1.27-.89h0Z"/>
  </g>
  <g>
    <path class="cls-1" d="M32.07,30.69c-.42,0-.79-.26-.93-.65l-3.44-9.42c-.09-.25-.08-.52.03-.76.11-.24.31-.42.56-.51.11-.04.23-.06.34-.06.42,0,.79.26.93.65l3.44,9.42c.19.52-.08,1.09-.59,1.28-.11.04-.23.06-.34.06h0Z"/>
    <path class="cls-1" d="M28.63,19.79c.17,0,.38.1.46.33l3.44,9.42c.09.26-.04.54-.29.63-.06.02-.11.03-.17.03-.17,0-.38-.1-.46-.33l-3.44-9.42c-.06-.17-.02-.31.02-.38.03-.07.11-.19.28-.26.06-.02.11-.03.17-.03M28.63,18.79c-.17,0-.34.03-.51.09-.78.28-1.17,1.14-.89,1.92l3.44,9.42c.22.61.79.98,1.4.98.17,0,.34-.03.51-.09h0c.78-.28,1.17-1.14.89-1.92l-3.44-9.42c-.22-.61-.79-.98-1.4-.98h0Z"/>
  </g>
  <g>
    <path class="cls-1" d="M28.26,35.08c-.26,0-.5-.1-.69-.28-.19-.18-.3-.43-.3-.7,0-.27.09-.52.28-.71l3.86-3.99c.19-.2.44-.3.72-.3s.5.1.69.28c.39.38.41,1.01.02,1.41l-3.86,3.99c-.19.2-.44.3-.72.3Z"/>
    <path class="cls-1" d="M32.12,29.6c.13,0,.25.05.34.14.13.12.15.27.15.35,0,.08-.02.22-.14.35l-3.86,3.99c-.13.13-.28.15-.36.15-.13,0-.25-.05-.34-.14-.13-.12-.15-.27-.15-.35,0-.08.02-.22.14-.35l3.86-3.99c.13-.13.28-.15.36-.15M32.12,28.6c-.39,0-.78.15-1.07.46l-3.86,3.99c-.57.59-.56,1.54.04,2.11h0c.29.28.66.42,1.04.42s.78-.15,1.07-.46l3.86-3.99c.57-.59.56-1.54-.04-2.11h0c-.29-.28-.66-.42-1.04-.42h0Z"/>
  </g>
  <path class="cls-2" d="M28.5,5c12.96,0,23.5,10.54,23.5,23.5s-10.54,23.5-23.5,23.5S5,41.46,5,28.5,15.54,5,28.5,5M28.5,0C12.76,0,0,12.76,0,28.5s12.76,28.5,28.5,28.5,28.5-12.76,28.5-28.5S44.24,0,28.5,0h0Z"/>
</svg>