<?xml version="1.0" encoding="UTF-8"?>
<svg id="_Слой_1" data-name="Слой 1" xmlns="http://www.w3.org/2000/svg" viewBox="0 0 734.2 635.83">
  <defs>
    <style>
      .cls-1 {
        fill: #354593;
      }

      .cls-1, .cls-2, .cls-3, .cls-4 {
        stroke-width: 0px;
      }

      .cls-2 {
        fill: #2e52aa;
      }

      .cls-3 {
        fill: #4a6cb4;
      }

      .cls-4 {
        fill: #fff;
      }
    </style>
  </defs>
  <polygon class="cls-1" points="550.65 0 183.55 0 0 317.92 183.55 635.83 550.65 635.83 734.2 317.92 550.65 0"/>
  <polyline class="cls-3" points="0 317.92 183.55 635.83 550.65 635.83 734.2 317.92"/>
  <polyline class="cls-2" points="550.65 0 183.55 0 0 317.92 183.55 635.83"/>
  <g>
    <path class="cls-4" d="M102.54,415.07l65.37-201.66h41.94l65.37,201.66h-37.93l-30.53-107.31c-2.88-10.69-5.91-21.69-9.1-32.99-3.19-11.3-6.12-22.51-8.79-33.61h-1.23c-2.88,11.1-5.81,22.31-8.79,33.61-2.98,11.31-6.01,22.31-9.1,32.99l-30.83,107.31h-36.39ZM141.08,360.49v-28.06h94.66v28.06h-94.66Z"/>
    <path class="cls-4" d="M374.5,418.77c-14.18,0-27.75-2.57-40.7-7.71s-24.47-12.43-34.54-21.89l20.97-24.36c7.6,6.78,16.24,12.29,25.9,16.5,9.66,4.22,19.84,6.32,30.53,6.32,11.72,0,20.66-2.31,26.83-6.94,6.17-4.62,9.25-10.43,9.25-17.42,0-5.96-1.44-10.74-4.32-14.34-2.88-3.59-6.84-6.63-11.87-9.1-5.04-2.47-10.95-5.03-17.73-7.71l-27.44-12.03c-6.99-2.88-13.83-6.58-20.5-11.1-6.68-4.52-12.13-10.28-16.34-17.27-4.22-6.99-6.32-15.42-6.32-25.28,0-10.69,2.98-20.3,8.94-28.83,5.96-8.53,14.23-15.31,24.82-20.35,10.58-5.04,22.66-7.55,36.23-7.55,12.33,0,24.1,2.31,35.31,6.94,11.2,4.62,21.02,10.85,29.45,18.65l-18.5,22.82c-6.79-5.55-13.93-9.81-21.43-12.8-7.51-2.98-16.4-4.47-26.67-4.47-9.46,0-17.17,2.06-23.13,6.17-5.96,4.11-8.94,9.97-8.94,17.58,0,5.14,1.64,9.36,4.93,12.64,3.29,3.29,7.55,6.17,12.8,8.63,5.24,2.47,10.84,4.83,16.81,7.09l26.52,11.41c8.63,3.29,16.24,7.3,22.82,12.03,6.58,4.73,11.72,10.54,15.42,17.42,3.7,6.89,5.55,15.26,5.55,25.13,0,10.9-2.98,20.87-8.94,29.91-5.96,9.05-14.49,16.29-25.59,21.74-11.1,5.44-24.47,8.17-40.09,8.17Z"/>
    <path class="cls-4" d="M486.12,415.07v-201.35h40.08l24.05,78.32,8.02,30.53h1.23l8.02-30.53,24.05-78.32h40.09v201.35h-32.07v-81.1c0-5.55.2-11.97.62-19.27.41-7.29.93-14.96,1.54-22.97.62-8.02,1.23-15.57,1.85-22.66.62-7.09,1.03-13.1,1.23-18.04h-.92l-13.26,46.87-22.51,63.52h-20.04l-22.2-63.52-12.95-46.87h-.62c.41,4.93.93,10.95,1.54,18.04.62,7.09,1.18,14.65,1.7,22.66.51,8.02.92,15.68,1.23,22.97.31,7.3.46,13.72.46,19.27v81.1h-31.14Z"/>
  </g>
</svg>