<?xml version="1.0" encoding="UTF-8"?>
<svg id="svg64" xmlns="http://www.w3.org/2000/svg" viewBox="0 0 397.32 450.17">
  <defs>
    <style>
      .cls-1 {
        fill: #eaebec;
      }

      .cls-1, .cls-2, .cls-3, .cls-4 {
        stroke-width: 0px;
      }

      .cls-2 {
        fill: #e4a126;
      }

      .cls-3 {
        fill: #fff;
      }

      .cls-4 {
        fill: #f0be25;
      }
    </style>
  </defs>
  <path id="path118" class="cls-3" d="M1.33,0l.06,5c.03,2.75,8,93.8,17.71,202.33l17.64,197.33,79.29,22.2c43.61,12.21,80.19,22.26,81.29,22.34,1.1.08,38.17-9.87,82.37-22.11,70.87-19.62,80.44-22.58,80.95-25.01.71-3.38,35.41-394.9,35.38-399.09l-.03-3H1.33Z"/>
  <path id="path88" class="cls-1" d="M116.67,428.2l-80-22.36-1.05-5.92C34.69,394.66,0,7.18,0,2.06,0,.21,20.26,0,198.67,0,386.99,0,397.33.12,397.32,2.33c-.06,9.55-35.97,402.16-36.85,402.94-1.12.99-155.96,44.13-161.13,44.89-1.47.22-38.67-9.67-82.67-21.97h0ZM249.11,349.18c26.89-7.42,49.28-13.87,49.75-14.33s3.62-32.35,6.99-70.85,6.47-72.55,6.89-75.67l.76-5.67h-116.16v49.33h62.72l-.62,3c-.34,1.65-1.68,15.83-2.96,31.51-1.36,16.61-2.98,29.15-3.87,30.04-.84.84-13.62,4.76-28.4,8.69l-26.86,7.16v25.13c0,17.15.46,25.13,1.44,25.13.79,0,23.44-6.07,50.33-13.48h0ZM312.73,151.67c-.88-6.53-8.73-94.16-8.73-97.47,0-2.01-4.62-2.2-52.67-2.2h-52.67v51.59l23.67.91c13.02.5,26.72,1.27,30.44,1.7l6.78.78,1.64,20.18c.9,11.1,1.98,22.43,2.4,25.18l.75,5h49.16l-.76-5.67Z"/>
  <path id="path80" class="cls-4" d="M116.04,426.87l-79.29-22.2-17.64-197.33C9.4,98.8,1.43,7.75,1.4,5L1.33,0h394.67l.03,3c.04,4.19-34.67,395.7-35.38,399.09-.51,2.43-10.07,5.38-80.94,25.01-44.2,12.24-81.27,22.19-82.37,22.11-1.1-.08-37.68-10.13-81.29-22.34h0ZM249.17,350.13c27.41-7.62,50.23-14.49,50.7-15.25.48-.77,3.75-34.28,7.28-74.47s6.7-74.12,7.05-75.4c.61-2.2-4.06-2.33-84.51-2.33h-85.16l3.63-38.33c1.99-21.08,3.67-38.39,3.73-38.45.06-.07,12.56-.47,27.77-.89,24.95-.69,76.4,1.3,78.13,3.02.64.64,4.87,42.15,4.87,47.82,0,2.79.38,2.84,25.84,2.84h25.84l-.61-5.67c-.33-3.12-2.52-27.27-4.86-53.67l-4.25-48-99.64-.34c-79.27-.27-99.64,0-99.65,1.33,0,.92-.59,6.78-1.29,13.01-1.7,15.08-14.7,160.82-14.7,164.85v3.15h169.57l-.76,5c-.42,2.75-1.73,16.7-2.93,31s-2.56,26.37-3.03,26.82c-1.24,1.19-51.12,14.52-54.23,14.49-1.44-.01-14.33-3.23-28.63-7.14l-26-7.12-.95-11.19c-.52-6.16-1.32-14.94-1.77-19.52l-.82-8.33h-50.45l.06,5c.1,9.35,6.17,72.33,7.05,73.22,1.02,1.02,97.91,28.26,100.9,28.36,1.1.04,24.43-6.16,51.84-13.78h0Z"/>
  <path id="path78" class="cls-2" d="M116.04,426.87l-79.29-22.2-17.64-197.33C9.4,98.8,1.43,7.75,1.4,5L1.33,0h394.67l.03,3c.04,4.19-34.67,395.7-35.38,399.09-.51,2.43-10.07,5.38-80.94,25.01-44.2,12.24-81.27,22.19-82.37,22.11-1.1-.08-37.68-10.13-81.29-22.34h0ZM263.91,397.17c34.88-9.62,64.08-18.17,64.88-19,1.25-1.28,31.37-331.45,31.25-342.5l-.04-3.67h-161.33v18.67h-46.67c-36.44,0-46.67.37-46.68,1.67,0,.92-.59,6.77-1.29,13-1.7,15.08-14.7,160.82-14.7,164.85v3.15h109.33v38.67c0,30.06-.37,38.66-1.67,38.64-.92-.01-13.37-3.23-27.67-7.14l-26-7.12-.95-11.19c-.52-6.16-1.32-14.94-1.77-19.52l-.82-8.33h-50.45l.06,5c.16,14.3,6.35,72.68,7.8,73.58.88.55,24.08,7.21,51.54,14.81l49.94,13.82v25.06c0,13.79.41,25.06.91,25.06s29.45-7.87,64.33-17.5h0ZM148.02,144.69c1.92-20.89,3.75-38.21,4.07-38.5.32-.29,10.93-.81,23.58-1.16l23-.64v78.27h-54.13l3.49-37.98Z"/>
</svg>