<?xml version="1.0" encoding="UTF-8"?>
<svg id="svg2" xmlns="http://www.w3.org/2000/svg" xmlns:xlink="http://www.w3.org/1999/xlink" viewBox="0 0 90.58 91.58">
  <defs>
    <style>
      .cls-1 {
        fill: url(#_Безымянный_градиент_2);
      }

      .cls-1, .cls-2 {
        stroke-width: 0px;
      }

      .cls-2 {
        fill: url(#_Безымянный_градиент);
      }
    </style>
    <linearGradient id="_Безымянный_градиент" data-name="Безымянный градиент" x1="517.84" y1="-174.56" x2="606.67" y2="-250.99" gradientTransform="translate(-293.53 -96.54) scale(.56 -.57)" gradientUnits="userSpaceOnUse">
      <stop offset="0" stop-color="#5a9fd4"/>
      <stop offset="1" stop-color="#306998"/>
    </linearGradient>
    <linearGradient id="_Безымянный_градиент_2" data-name="Безымянный градиент 2" x1="641.01" y1="-297.25" x2="609.29" y2="-252.37" gradientTransform="translate(-293.53 -96.54) scale(.56 -.57)" gradientUnits="userSpaceOnUse">
      <stop offset="0" stop-color="#ffd43b"/>
      <stop offset="1" stop-color="#ffe873"/>
    </linearGradient>
  </defs>
  <path id="path1948" class="cls-2" d="M44.75,0c-3.73.02-7.3.34-10.44.89-9.25,1.63-10.92,5.05-10.92,11.36v8.33h21.85v2.78H15.19c-6.35,0-11.91,3.82-13.65,11.08-2.01,8.32-2.09,13.51,0,22.2,1.55,6.47,5.26,11.08,11.61,11.08h7.51v-9.98c0-7.21,6.24-13.57,13.65-13.57h21.82c6.07,0,10.92-5,10.92-11.1V12.25c0-5.92-4.99-10.37-10.92-11.36C52.38.27,48.48-.02,44.75,0ZM32.93,6.7c2.26,0,4.1,1.87,4.1,4.18,0,2.29-1.84,4.15-4.1,4.15-2.26,0-4.1-1.86-4.1-4.15s1.83-4.18,4.1-4.18Z"/>
  <path id="path1950" class="cls-1" d="M69.78,23.35v9.7c0,7.52-6.38,13.85-13.65,13.85h-21.82c-5.98,0-10.92,5.12-10.92,11.1v20.8c0,5.92,5.15,9.4,10.92,11.1,6.92,2.03,13.55,2.4,21.82,0,5.5-1.59,10.92-4.8,10.92-11.1v-8.33h-21.82v-2.78h32.75c6.35,0,8.72-4.43,10.92-11.08,2.28-6.84,2.18-13.42,0-22.2-1.57-6.32-4.57-11.08-10.92-11.08h-8.2ZM57.51,76.03c2.26,0,4.1,1.86,4.1,4.15s-1.83,4.18-4.1,4.18-4.1-1.87-4.1-4.18,1.84-4.15,4.1-4.15Z"/>
</svg>