<?xml version="1.0" encoding="UTF-8"?>

<?xml-stylesheet type="text/css" href="styles.css"?>

<!DOCTYPE svg PUBLIC "-//W3C//DTD SVG 1.1//EN"
  "http://www.w3.org/Graphics/SVG/1.1/DTD/svg11.dtd">

<svg xmlns="http://www.w3.org/2000/svg" viewBox="0 0 1934 1072.5">
  <defs>
    <style>
      .lines {
        fill: none;
        stroke: #074F87;
        stroke-width: 10px;
        stroke-miterlimit: 10;
      }

      .spots {
        fill: #151831;
        stroke-width: 0px;
      }

      .background {
        fill: #151520;
        stroke-width: 0px;
      }
    </style>
  </defs>
  <g id="vector" data-name="vector">
    <rect class="background" x="-139" y="-29" width="2138.24" height="1438.58"/>
    <path class="spots" d="M733.45,404.87c39.56-15.35,39.18-60.26,85-128,15.31-22.63,24.98-36.92,43-53,47.05-41.97,84.46-36.74,110-79,4.95-8.2,17.77-30.08,10-50-5.91-15.15-21.01-22.2-27-25-42.1-19.66-154.25-14.39-231,64,0,0-61.23,62.54-69,157-.92,11.17-1.95,35.15,7,63,5.65,17.59,14.41,44.85,37,53,15.15,5.47,29.94-.04,35-2h0Z"/>
    <path class="spots" d="M60.81-26.42c18.6,3.99,37.43,6.85,56.39,8.36,46.07,3.67,125.7,18.84,181.36,79.01,12.37,13.37,37.56,40.53,49.01,84.02,8.46,32.15,10.22,67.3,1.28,99.04-7.84,27.86-20.64,54.17-29.41,82.04-6.99,21-10.48,54.14-12.23,82.28-2.2,35.5.39,71.15,8.01,105.9,1.58,7.2,3.25,14.02,4.92,19.62,9.19,30.83,22.58,61.75,43.07,87.84,18.53,23.89,41.25,44.21,64.76,62.55,15.38,12.04,32.54,22.01,43.1,38.8,8.09,12.54,11.05,29.87.98,42.12l-.1.12c-18.25,21.37-53.65,18.52-80.45,16.47-22.61-2.01-45.31-5.41-67.55-9.38-21.94-3.82-42.53-8.75-64.6-10.33-22.27-1.45-45.91-.99-67.28,5-21.22,6.06-40.25,18.9-59.05,31.7-41.05,27.97-79.01,63.54-119.55,92.83-9.47,6.83-19.17,12.48-29.21,17.1-10.78,4.96-28.08,13.01-49.33,14.44,0,0-23.19,1.56-42.86-6.05-23.24-9-109.84-1003.17,168.74-943.48Z"/>
    <path class="spots" d="M403.45,1089.87c-27.89-38.17-28-76-28-76-.14-47.31,31.87-82.89,44-96,80.24-86.75,235.58-96.05,385-105,28.63-1.71,87.57-4.34,145-42,30.22-19.82,48.43-41.74,56-51,75.97-92.91,70.37-229.95,113-342,85.55-224.85,346.78-300.39,360-304,38.32-10.48,115-30.43,207-6,29.24,7.76,108.21,28.73,164,99,24.35,30.67,41.04,66.63,62,181,28.48,155.4,30,245,30,245,6.9,408.06,99.67,528.42,35,655-202.83,397.03-1492.84-48.29-1573-158h0Z"/>
    <path class="lines" d="M301.95-10.1c26.24,10.31,52.11,27.07,72.87,46.81,23.16,21.23,38.46,48.57,46.62,81.78,8.05,31.29,9.72,65.5,1.22,96.39-7.46,27.12-19.63,52.72-27.98,79.85-8.34,25.63-11.44,69.84-12.6,99.73-.8,20.61.65,41.23,4.31,61.53,2.53,14,5.73,29.93,8.96,40.98,8.74,30.01,21.47,60.1,40.96,85.49,17.62,23.25,39.23,43.03,61.59,60.87,14.62,11.72,30.95,21.42,40.99,37.76,7.7,12.2,10.51,29.07.93,40.99l-.09.12c-17.36,20.8-51.02,18.03-76.52,16.03-21.51-1.95-43.09-5.27-64.24-9.13-20.87-3.72-40.45-8.52-61.44-10.05-21.18-1.41-43.66-.96-63.99,4.86-20.18,5.9-38.28,18.39-56.17,30.85-39.05,27.22-75.14,61.84-113.71,90.34-22.9,16.9-47.26,26.44-74.7,30.7-14.24,1.81-31.36,4.55-40.77-5.89"/>
    <path class="lines" d="M621.37,309.89c-12.66-118.08,67.93-242.24,205.75-260.67,28.45-3.69,67.35-9.49,92.55-.6,22.98,7.59,34.55,36.98,26.63,59.07-8.13,22.22-40.39,38.91-60.92,55.08-35.9,27.27-70.82,54.63-95.33,92.45-18.68,28.63-38.36,71.28-69.03,109.7-8.89,11.15-20.74,22.93-36.53,23.85-11.96.74-23.46-4.21-32.59-11.71-22.16-17.31-28.68-49.4-30.5-67.03l-.02-.13h0Z"/>
    <path class="lines" d="M354.48,1082.91c-24.66-26.62-54.05-82.71-41.77-131.86,9.39-46.41,49.46-77.5,81.89-98.03,178.19-120.69,394.68-22.56,544.22-159.3,41.94-41.83,65.13-98.93,73.19-146.05,31.36-188.01,82.68-370.81,344.13-489.19,52.58-20.45,219.25-82.7,357.11,5.61,41.89,27.16,74.7,66.53,95.41,108.79,30.86,57.52,50.85,122.67,55,180.23,6.07,66.3,1.28,133.19,22.83,242,12.25,57.96,26.18,116.58,60.97,203.77"/>
  </g>
</svg>