<?xml version="1.0" encoding="UTF-8"?>
<svg id="CodeL" xmlns="http://www.w3.org/2000/svg" viewBox="0 0 76.09 76.09">
  <defs>
    <style>
      .cls-1 {
        fill: #181823;
      }

      .cls-1, .cls-2 {
        stroke-width: 0px;
      }

      .cls-2 {
        fill: #449ee0;
      }
    </style>
  </defs>
  <rect class="cls-1" width="76.09" height="76.09" rx="23.1" ry="23.1"/>
  <path id="CodeL-2" data-name="CodeL" class="cls-2" d="M39.11,62.78c-7.41,0-13.08-2.08-17.01-6.24-3.92-4.16-5.89-10.34-5.89-18.53s1.97-14.31,5.89-18.49c3.93-4.19,9.6-6.25,17-6.21l17.28.12c1.62.01,2.92,1.32,2.92,2.94v2.87c0,1.62-1.32,2.94-2.94,2.94h-16.65c-4.86,0-8.47,1.25-10.83,3.76-2.36,2.5-3.53,6.53-3.53,12.08s1.18,9.58,3.53,12.11,5.97,3.79,10.83,3.79h17.21c1.62,0,2.94,1.32,2.94,2.94v2.99c0,1.62-1.32,2.94-2.94,2.94h-17.83Z"/>
</svg>