<?xml version="1.0" encoding="UTF-8"?>
<svg id="CodeL" xmlns="http://www.w3.org/2000/svg" xmlns:xlink="http://www.w3.org/1999/xlink" viewBox="0 0 481.41 80.37">
  <defs>
    <style>
      .logo {
        fill: url(#blueGradient);
        stroke-width: 0px;
      }
    </style>
    <linearGradient id="blueGradient" data-name="blueGradient" x1="0" y1="40.19" x2="481.41" y2="40.19" gradientUnits="userSpaceOnUse">
      <stop offset="0" stop-color="#7bd5f5"/>
      <stop offset=".04" stop-color="#7ac9f5"/>
      <stop offset=".12" stop-color="#79abf5"/>
      <stop offset=".22" stop-color="#787ff6"/>
      <stop offset=".49" stop-color="#4adede"/>
      <stop offset=".75" stop-color="#1ca7ec"/>
      <stop offset=".8" stop-color="#1ca3e9"/>
      <stop offset=".84" stop-color="#1c97e0"/>
      <stop offset=".89" stop-color="#1c83d3"/>
      <stop offset=".93" stop-color="#1d67bf"/>
      <stop offset=".98" stop-color="#1e44a7"/>
      <stop offset="1" stop-color="#1f2f98"/>
    </linearGradient>
  </defs>
  <path id="CodeL" data-name="CodeL" class="logo" d="M44.83,80.37c-14.5,0-25.6-3.38-33.3-10.14C3.85,63.47,0,53.43,0,40.13S3.85,16.89,11.54,10.09C19.23,3.29,30.33-.07,44.83,0l39.56.22v14.19h-38.35c-9.52,0-16.59,2.03-21.21,6.1-4.62,4.06-6.92,10.61-6.92,19.62s2.31,15.57,6.92,19.68,11.68,6.15,21.21,6.15h39.45v14.41h-40.66ZM136.7,80.37c-9.82,0-17.47-2.46-22.97-7.37-5.49-4.91-8.24-12.14-8.24-21.67s2.75-16.87,8.24-21.78c5.49-4.91,13.15-7.37,22.97-7.37h20.33c9.82,0,17.47,2.46,22.97,7.37,5.5,4.92,8.24,12.18,8.24,21.78s-2.75,16.76-8.24,21.67c-5.49,4.92-13.15,7.37-22.97,7.37h-20.33ZM136.7,67.62h20.33c4.76,0,8.41-1.33,10.93-3.99,2.53-2.66,3.79-6.76,3.79-12.3s-1.26-9.76-3.79-12.42c-2.53-2.66-6.17-3.99-10.93-3.99h-20.33c-4.76,0-8.41,1.33-10.93,3.99-2.53,2.66-3.79,6.8-3.79,12.42s1.26,9.64,3.79,12.3c2.53,2.66,6.17,3.99,10.93,3.99ZM239.99,79.82c-9.82,0-17.47-2.44-22.97-7.32s-8.24-11.93-8.24-21.17,2.75-16.41,8.24-21.28,13.15-7.32,22.97-7.32h36.81v12.75h-36.81c-4.76,0-8.41,1.31-10.93,3.94-2.53,2.62-3.79,6.6-3.79,11.92s1.26,9.18,3.79,11.81c2.53,2.62,6.17,3.94,10.93,3.94h37.91v12.75h-37.91ZM264.72,79.82V.56h15.93v79.26h-15.93ZM334.6,80.37c-9.82,0-17.47-2.46-22.97-7.37-5.49-4.91-8.24-12.14-8.24-21.67s2.75-16.87,8.24-21.78c5.5-4.91,13.15-7.37,22.97-7.37h27.47c6.45,0,11.37,1.53,14.78,4.6,3.41,3.07,5.11,7.45,5.11,13.14,0,11.6-6.63,17.4-19.89,17.4h-41.54c1.54,6.87,6.23,10.31,14.07,10.31h44.5v12.75h-44.5ZM334.6,34.92c-7.55,0-12.2,3.21-13.96,9.64h40.66c1.46,0,2.62-.44,3.46-1.33.84-.89,1.26-2.11,1.26-3.66,0-3.1-1.58-4.66-4.72-4.66h-26.7ZM406.36,79.82V.56h17.58v64.85h57.47v14.41h-75.05Z"/>
</svg>